<?xml version="1.0" encoding="UTF-8"?> <!-- Generator: Adobe Illustrator 19.2.1, SVG Export Plug-In . SVG Version: 6.00 Build 0) --> <svg xmlns="http://www.w3.org/2000/svg" xmlns:xlink="http://www.w3.org/1999/xlink" id="Слой_1" x="0px" y="0px" width="293px" height="52.7px" viewBox="0 0 293 52.7" xml:space="preserve"> <g> <path fill="#2C3A50" d="M282.8,5.3c0-1.2,0.4-2.2,1.3-3c0.8-0.8,1.8-1.2,3-1.2c1.2,0,2.2,0.4,3,1.2c0.8,0.8,1.2,1.8,1.2,3 c0,1.2-0.4,2.2-1.2,3c-0.8,0.8-1.8,1.3-3,1.3c-1.2,0-2.2-0.4-3-1.3C283.2,7.4,282.8,6.4,282.8,5.3L282.8,5.3z M290.7,5.3 c0-1-0.3-1.8-1-2.5c-0.7-0.7-1.5-1-2.5-1c-1,0-1.8,0.3-2.5,1c-0.7,0.7-1,1.5-1,2.5c0,1,0.3,1.8,1,2.5c0.7,0.7,1.5,1,2.5,1 c1,0,1.8-0.3,2.5-1C290.3,7.1,290.7,6.2,290.7,5.3L290.7,5.3z M288.4,7.8l-1.3-2.3h-0.8v2.3h-0.8V2.6h1.3c1.3,0,1.9,0.5,1.9,1.5 c0,0.7-0.3,1.2-1,1.4l1.4,2.4H288.4L288.4,7.8z M286.3,3.2V5c0.1,0,0.2,0,0.5,0c0.5,0,0.8-0.1,1-0.2c0.2-0.1,0.3-0.4,0.3-0.7 c0-0.6-0.4-0.9-1.1-0.9h-0.3L286.3,3.2L286.3,3.2z"></path> <polygon fill-rule="evenodd" fill="#3D6684" points="15.7,2.8 30,11 30,24.4 15.7,16.1 15.7,2.8 "></polygon> <polygon fill-rule="evenodd" fill="#4599D8" points="15.7,2.8 1.4,11 1.4,24.4 15.7,16.1 15.7,2.8 "></polygon> <polygon fill-rule="evenodd" fill="#4599D8" points="44.4,2.8 30,11 30,24.4 44.4,16.1 44.4,2.8 "></polygon> <polygon fill-rule="evenodd" fill="#3D6684" points="44.4,2.8 58.7,11 58.7,24.4 44.4,16.1 44.4,2.8 "></polygon> <polygon fill-rule="evenodd" fill="#3D6684" points="15.7,29.6 30,37.9 30,51.2 15.7,43 15.7,29.6 "></polygon> <polygon fill-rule="evenodd" fill="#4599D8" points="15.7,29.6 1.4,37.9 1.4,51.2 15.7,43 15.7,29.6 "></polygon> <polygon fill-rule="evenodd" fill="#4599D8" points="44.4,29.6 30,37.9 30,51.2 44.4,43 44.4,29.6 "></polygon> <polygon fill-rule="evenodd" fill="#3D6684" points="44.4,29.6 58.7,37.9 58.7,51.2 44.4,43 44.4,29.6 "></polygon> <path fill="#2C3A50" d="M99.2,33.4h4.4l-1.5-26.2h-3.6v0.1l-6.6,16.2c-0.3,0.6-0.6,1.3-0.8,2c-0.3,0.7-0.5,1.4-0.8,2.1l-1.6-4 L82,7.2h-3.6l-1.5,26.2h4.4l0.4-10c0-0.3,0-0.6,0-1.1c0-0.4,0-1,0.1-1.6c0-0.6,0-1.2,0.1-1.9c0-0.7,0-1.3,0-2 c0.2,0.6,0.5,1.3,0.7,2c0.2,0.7,0.5,1.3,0.7,1.9c0.2,0.6,0.4,1.1,0.6,1.6c0.2,0.5,0.4,0.9,0.5,1.1l4.3,9.8h3.3l4.3-10 c0.1-0.3,0.3-0.6,0.4-1.1c0.2-0.5,0.4-1,0.6-1.6c0.2-0.6,0.5-1.2,0.7-1.8c0.2-0.6,0.5-1.3,0.7-1.9c0,0.8,0,1.7,0,2.5 c0,0.8,0,1.6,0.1,2.3c0,0.7,0.1,1.3,0.1,1.7L99.2,33.4L99.2,33.4z M123.7,15c-0.4-0.1-0.9-0.2-1.3-0.3c-0.4-0.1-0.9-0.2-1.3-0.3 c-0.5-0.1-1-0.2-1.6-0.3c-0.5-0.1-1.1-0.2-1.7-0.2c-0.6-0.1-1.1-0.1-1.6-0.1c-1.4,0-2.6,0.3-3.7,0.8c-1.1,0.5-2.1,1.2-2.9,2.1 c-0.8,0.9-1.5,2-1.9,3.2c-0.4,1.2-0.7,2.6-0.7,4.1c0,1.5,0.1,2.8,0.4,3.9c0.3,1.2,0.7,2.2,1.3,3c0.6,0.8,1.3,1.5,2.2,1.9 c0.9,0.5,1.9,0.7,3.1,0.7c1.1,0,2-0.2,2.8-0.5c0.8-0.3,1.4-0.9,2-1.5c0.5-0.7,0.9-1.5,1.2-2.6c0.1,0.8,0.2,1.5,0.4,2 c0.2,0.6,0.4,1.1,0.7,1.5c0.1,0.2,0.3,0.4,0.4,0.6c0.1,0.2,0.3,0.4,0.5,0.6l3.5-1.4c-0.2-0.2-0.3-0.5-0.5-0.8 c-0.2-0.3-0.3-0.6-0.5-1c-0.2-0.6-0.5-1.5-0.6-2.5c-0.2-1.1-0.3-2.3-0.3-3.9V15L123.7,15z M114.9,30.6c-0.7,0-1.2-0.2-1.6-0.6 c-0.4-0.4-0.7-0.9-0.9-1.5c-0.2-0.6-0.3-1.4-0.4-2.2c-0.1-0.8-0.1-1.7-0.1-2.6c0-1,0.1-1.9,0.2-2.7c0.2-0.8,0.4-1.5,0.8-2.1 c0.4-0.6,0.9-1.1,1.5-1.4c0.6-0.3,1.4-0.5,2.4-0.5c0.3,0,0.6,0,0.9,0.1c0.3,0.1,0.6,0.1,0.9,0.2c0.3,0.1,0.5,0.1,0.7,0.2V23 c0,1-0.1,1.9-0.3,2.8c-0.2,0.9-0.5,1.7-0.9,2.4c-0.4,0.7-0.9,1.3-1.4,1.7C116.1,30.3,115.5,30.5,114.9,30.6L114.9,30.6z M137.5,18.3c0.3,0,0.6,0,0.8,0.1c0.2,0,0.4,0.1,0.6,0.2c0.1,0,0.2,0.1,0.3,0.1c0.1,0,0.2,0.1,0.2,0.1l1.2-4.3l-0.7-0.2 c-0.2-0.1-0.5-0.1-0.8-0.2c-0.3,0-0.6-0.1-0.9-0.1c-0.8,0-1.6,0.1-2.3,0.4c-0.7,0.3-1.3,0.7-1.9,1.4c-0.6,0.6-1,1.4-1.4,2.4 c-0.1-0.7-0.3-1.2-0.5-1.7c-0.2-0.5-0.4-0.9-0.6-1.3l-0.7-1l-3.5,1.4c0.2,0.2,0.3,0.5,0.5,0.8c0.2,0.3,0.3,0.6,0.4,1 c0.2,0.4,0.3,0.9,0.5,1.5c0.1,0.6,0.3,1.3,0.4,2.1c0.1,0.8,0.1,1.7,0.1,2.8v9.7h4.4V22.8c0.1-0.9,0.3-1.7,0.7-2.4 c0.4-0.7,0.8-1.2,1.4-1.6C136.3,18.5,136.9,18.3,137.5,18.3L137.5,18.3z M147.2,33.6c0.5,0,0.9,0,1.2-0.1c0.3-0.1,0.6-0.1,0.9-0.2 c0.1,0,0.3-0.1,0.4-0.1c0.1,0,0.2-0.1,0.3-0.1l-0.5-2.8c-0.1,0-0.1,0-0.2,0c-0.1,0-0.1,0-0.2,0c-0.1,0-0.2,0-0.3,0 c-0.1,0-0.2,0-0.3,0c-0.2,0-0.4,0-0.6-0.1c-0.2-0.1-0.3-0.2-0.4-0.5c-0.1-0.2-0.1-0.5-0.1-0.9V14.2H143v15c0,0.9,0.2,1.6,0.5,2.3 c0.3,0.7,0.8,1.2,1.4,1.5C145.5,33.4,146.3,33.6,147.2,33.6L147.2,33.6z M145.3,5.7c-0.6,0-1.1,0.1-1.5,0.4c-0.4,0.2-0.7,0.6-0.9,1 c-0.2,0.4-0.3,0.9-0.3,1.4c0,0.5,0.1,0.9,0.3,1.3c0.2,0.4,0.5,0.7,0.9,0.9c0.4,0.2,0.9,0.4,1.4,0.4c0.6,0,1.1-0.1,1.5-0.4 c0.4-0.2,0.7-0.6,0.9-1c0.2-0.4,0.3-0.9,0.3-1.4c0-0.5-0.1-1-0.3-1.4c-0.2-0.4-0.5-0.7-0.9-0.9C146.3,5.8,145.8,5.7,145.3,5.7 L145.3,5.7z M157.9,24c0-1,0.1-1.9,0.3-2.7c0.3-0.8,0.6-1.5,1.1-2.1c0.5-0.6,1-1,1.5-1.3c0.6-0.3,1.1-0.5,1.7-0.5 c0.6,0,1.1,0.1,1.5,0.4c0.4,0.3,0.6,0.7,0.8,1.2c0.2,0.5,0.3,1.2,0.2,1.9v12.5h4.4V20.6c0-2.4-0.5-4.1-1.6-5.2 c-0.5-0.5-1.1-0.8-1.7-1.1c-0.7-0.2-1.4-0.4-2.3-0.4c-0.9,0-1.8,0.1-2.7,0.4c-0.9,0.3-1.7,0.8-2.4,1.4c-0.7,0.6-1.3,1.5-1.8,2.5 c-0.1-0.7-0.3-1.3-0.5-1.8c-0.2-0.5-0.4-0.9-0.6-1.3c-0.1-0.2-0.3-0.4-0.4-0.6c-0.1-0.2-0.3-0.3-0.4-0.5l-3.5,1.4 c0.2,0.2,0.3,0.5,0.5,0.8c0.2,0.3,0.3,0.6,0.4,1c0.2,0.4,0.3,0.9,0.5,1.5c0.1,0.6,0.3,1.3,0.4,2.1c0.1,0.8,0.1,1.7,0.1,2.8v9.7h4.4 V24L157.9,24z M173.1,24.3c0,1.4,0.1,2.7,0.5,3.9c0.3,1.2,0.8,2.1,1.5,3c0.7,0.8,1.5,1.5,2.6,1.9c1.1,0.4,2.3,0.7,3.8,0.7 c1,0,1.9-0.1,2.8-0.3c0.9-0.2,1.6-0.4,2.3-0.6c0.4-0.1,0.8-0.3,1.1-0.4c0.4-0.1,0.7-0.3,1-0.5l-1.2-2.8c-0.3,0.1-0.6,0.3-0.9,0.4 c-0.3,0.1-0.6,0.2-1,0.3c-0.4,0.1-0.8,0.2-1.2,0.3c-0.4,0.1-0.8,0.2-1.2,0.2c-0.4,0.1-0.8,0.1-1.2,0.1c-1,0-1.8-0.2-2.4-0.6 c-0.6-0.4-1-0.9-1.3-1.6c-0.3-0.6-0.5-1.4-0.6-2.2c1.7,0,3.2-0.2,4.6-0.6c1.4-0.4,2.5-0.9,3.5-1.5c1-0.6,1.7-1.4,2.2-2.2 c0.5-0.8,0.8-1.7,0.8-2.7c0-1-0.2-2-0.6-2.8c-0.4-0.8-1.1-1.5-2.1-2c-0.9-0.5-2.2-0.7-3.7-0.7c-1.3,0-2.5,0.2-3.7,0.7 c-1.1,0.5-2.1,1.1-3,2c-0.8,0.9-1.5,2-2,3.3C173.3,21.1,173.1,22.6,173.1,24.3L173.1,24.3z M182.1,16.8c0.5,0,0.9,0.1,1.2,0.3 c0.4,0.2,0.6,0.5,0.8,0.8c0.2,0.4,0.3,0.8,0.3,1.3c0,0.5-0.1,0.9-0.4,1.4c-0.2,0.5-0.6,0.9-1.2,1.3c-0.5,0.4-1.2,0.7-2.1,1 c-0.9,0.3-1.9,0.4-3.1,0.4c0-0.8,0.1-1.6,0.3-2.3c0.1-0.8,0.4-1.5,0.7-2.1c0.3-0.6,0.8-1.1,1.3-1.5C180.5,17,181.2,16.8,182.1,16.8 L182.1,16.8z M224.5,33.4h4.4l-1.5-26.2h-3.6v0.1l-6.6,16.2c-0.3,0.6-0.6,1.3-0.8,2c-0.3,0.7-0.5,1.4-0.8,2.1l-1.6-4l-6.6-16.3 h-3.6l-1.5,26.2h4.4l0.4-10c0-0.3,0-0.6,0-1.1c0-0.4,0-1,0.1-1.6c0-0.6,0-1.2,0.1-1.9c0-0.7,0-1.3,0-2c0.2,0.6,0.5,1.3,0.7,2 c0.2,0.7,0.5,1.3,0.7,1.9c0.2,0.6,0.5,1.1,0.6,1.6c0.2,0.5,0.4,0.9,0.5,1.1l4.3,9.8h3.3l4.3-10c0.1-0.3,0.3-0.6,0.4-1.1 c0.2-0.5,0.4-1,0.6-1.6c0.2-0.6,0.5-1.2,0.7-1.8c0.2-0.6,0.5-1.3,0.7-1.9c0,0.8,0,1.7,0,2.5c0,0.8,0,1.6,0.1,2.3 c0,0.7,0.1,1.3,0.1,1.7L224.5,33.4L224.5,33.4z M231,33.4h4.6l2.4-6.8h9.4l2.4,6.8h4.9l-10-26.1h-3.7L231,33.4L231,33.4z M239.3,23.2c0.5-1.5,1-2.9,1.5-4.2c0.4-1.3,0.8-2.5,1.2-3.6c0.3-1.1,0.6-2,0.9-2.8c0.2,0.7,0.5,1.6,0.8,2.7 c0.3,1.1,0.7,2.3,1.2,3.7c0.4,1.4,0.9,2.8,1.5,4.3H239.3L239.3,23.2z M272.9,20.9c0,0.4,0,0.9,0,1.4c0,0.5,0.1,1.1,0.1,1.6 c0,0.6,0.1,1.1,0.1,1.7c-0.3-0.5-0.7-1-1-1.6c-0.3-0.5-0.7-1.1-1.1-1.6c-0.4-0.5-0.7-1.1-1.1-1.6l-9-13.5h-3.6v26.2h4.6l-0.1-13.5 c0-0.8,0-1.7-0.1-2.6c-0.1-0.9-0.1-1.8-0.2-2.6c0.3,0.5,0.7,1.1,1.1,1.7c0.4,0.6,0.8,1.2,1.1,1.8c0.4,0.6,0.7,1.1,1,1.6l8.8,13.6 h3.9V7.3h-4.6L272.9,20.9L272.9,20.9z"></path> <path fill="#2C3A50" d="M76.9,50.6l0.5-1.3c0.3,0.2,0.6,0.4,1,0.5c0.4,0.1,0.8,0.2,1.1,0.2c0.6,0,1-0.2,1.3-0.5 c0.3-0.3,0.5-0.7,0.5-1.2c0-0.4-0.1-0.7-0.3-1c-0.2-0.3-0.7-0.6-1.4-1L78.8,46c-0.7-0.3-1.2-0.7-1.5-1.2c-0.3-0.5-0.4-1-0.4-1.6 c0-0.8,0.3-1.4,0.8-1.9c0.6-0.5,1.3-0.8,2.1-0.8c1.2,0,2,0.2,2.4,0.6l-0.4,1.2c-0.2-0.1-0.5-0.3-0.9-0.4c-0.4-0.1-0.8-0.2-1.1-0.2 c-0.5,0-0.9,0.1-1.1,0.4c-0.3,0.3-0.4,0.6-0.4,1.1c0,0.3,0.1,0.5,0.2,0.7c0.1,0.2,0.2,0.4,0.4,0.5c0.2,0.1,0.5,0.4,1.1,0.6l0.9,0.4 c0.7,0.3,1.2,0.7,1.5,1.2c0.3,0.5,0.4,1.1,0.4,1.8c0,0.8-0.3,1.4-0.9,2c-0.6,0.5-1.5,0.8-2.5,0.8C78.3,51.2,77.5,51,76.9,50.6 L76.9,50.6z M96.1,51.1v-5h-4.6v5h-1.4V40.6h1.4v4.2h4.6v-4.2h1.4v10.4H96.1L96.1,51.1z M105.7,51.1V40.6h1.4v10.4H105.7 L105.7,51.1z M116.7,47.1v4h-1.4V40.6c1.1,0,1.7-0.1,2-0.1c3,0,4.6,1,4.6,3c0,2.3-1.3,3.5-4,3.5C117.6,47.1,117.2,47.1,116.7,47.1 L116.7,47.1z M116.7,41.9v3.9c0.6,0,0.9,0.1,1,0.1c1.8,0,2.6-0.7,2.6-2.1c0-1.3-0.9-1.9-2.8-1.9C117.3,41.8,117,41.9,116.7,41.9 L116.7,41.9z M144.9,51.1l-1.2-6.7l-2.3,6.8H141l-2.4-6.8l-1.2,6.7h-1.4l2-10.4h0.6l2.5,7.6l2.3-7.6h0.6l2.1,10.4H144.9L144.9,51.1 z M159.1,51.1l-0.7-2.2h-3.9l-0.8,2.2h-1.6l4.2-10.6h0.4l3.9,10.6H159.1L159.1,51.1z M156.5,43.2l-1.6,4.6h3.1L156.5,43.2 L156.5,43.2z M174.3,51.2l-5.4-7.6v7.5h-1.4V40.6h0.6l5.3,7.2v-7.2h1.4v10.6H174.3L174.3,51.2z M188.5,51.1l-0.7-2.2h-3.9l-0.8,2.2 h-1.6l4.2-10.6h0.4l3.9,10.6H188.5L188.5,51.1z M185.9,43.2l-1.6,4.6h3.1L185.9,43.2L185.9,43.2z M204.2,41.4l-0.6,1.2 c-0.7-0.5-1.4-0.8-2.1-0.8c-1.1,0-2,0.4-2.6,1.2c-0.6,0.8-0.9,1.8-0.9,3.1c0,1.2,0.3,2.2,0.9,2.9c0.6,0.7,1.5,1.1,2.5,1.1 c0.8,0,1.4-0.2,1.8-0.7v-2.4h-1.4v-1.2h2.9v4.5c-0.4,0.3-0.9,0.6-1.6,0.8c-0.7,0.2-1.3,0.3-2,0.3c-1.4,0-2.6-0.5-3.4-1.5 c-0.8-1-1.2-2.3-1.2-3.9c0-1.6,0.5-2.9,1.4-3.9c0.9-1,2.1-1.5,3.7-1.5C202.6,40.4,203.5,40.7,204.2,41.4L204.2,41.4z M214,41.9v2.9 h3.4V46H214v3.8h4.7v1.3h-6.2V40.6h6.2v1.3H214L214,41.9z M234,51.1l-1.2-6.7l-2.3,6.8h-0.4l-2.4-6.8l-1.2,6.7h-1.4l2-10.4h0.6 l2.5,7.6l2.3-7.6h0.6l2.1,10.4H234L234,51.1z M243.7,41.9v2.9h3.4V46h-3.4v3.8h4.7v1.3h-6.2V40.6h6.2v1.3H243.7L243.7,41.9z M262.6,51.2l-5.4-7.6v7.5h-1.4V40.6h0.6l5.3,7.2v-7.2h1.4v10.6H262.6L262.6,51.2z M274.8,41.9v9.1h-1.4v-9.1H270v-1.3h8.2v1.3 H274.8L274.8,41.9z"></path> </g> </svg> 