<?xml version="1.0" encoding="UTF-8"?> <!-- Generator: Adobe Illustrator 19.2.1, SVG Export Plug-In . SVG Version: 6.00 Build 0) --> <svg xmlns="http://www.w3.org/2000/svg" xmlns:xlink="http://www.w3.org/1999/xlink" id="Capa_1" x="0px" y="0px" width="19px" height="19px" viewBox="0 0 19 19" style="enable-background:new 0 0 19 19;" xml:space="preserve"> <style type="text/css"> .st0{fill:#204461;} </style> <g> <path class="st0" d="M14.5,8.2C14.5,8.1,14.5,8.1,14.5,8.2C14.5,8.1,14.5,8.1,14.5,8.2C14.5,8.1,14.5,8.1,14.5,8.2 c0-0.1,0-0.1,0-0.1c0,0,0,0,0,0c0,0,0,0,0,0c0,0,0,0,0,0c0,0,0,0,0,0c0,0,0,0,0,0c0,0,0,0,0,0c0,0,0,0,0,0c0,0,0,0,0,0c0,0,0,0,0,0 c0,0,0,0,0,0c0,0,0,0,0,0L8,4.2l3.6-2.3l6.1,3.5L15.2,7C15,7.2,14.9,7.4,15,7.6c0.1,0.2,0.4,0.3,0.6,0.1l3.2-2 C18.9,5.7,19,5.5,19,5.4c0-0.2-0.1-0.3-0.2-0.4l-7-4c-0.1-0.1-0.3-0.1-0.4,0L6.9,3.9c0,0,0,0,0,0L4.7,5.3c0,0,0,0,0,0L0.2,8.1 C0.1,8.2,0,8.3,0,8.5c0,0.2,0.1,0.3,0.2,0.4l7,4c0.1,0,0.1,0.1,0.2,0.1c0.1,0,0.2,0,0.2-0.1l3.2-2c0.2-0.1,0.3-0.4,0.1-0.6 c-0.1-0.2-0.4-0.3-0.6-0.1l-3,1.9L1.3,8.5l3.6-2.3l6.5,3.7v4.9c0,0.2,0.1,0.3,0.2,0.4c0.1,0,0.1,0.1,0.2,0.1c0.1,0,0.2,0,0.2-0.1 l2.2-1.4c0.1-0.1,0.2-0.2,0.2-0.4L14.5,8.2C14.5,8.2,14.5,8.2,14.5,8.2C14.5,8.2,14.5,8.2,14.5,8.2z M12.3,14V9.6 c0-0.2-0.1-0.3-0.2-0.4L5.7,5.6l1.4-0.9l6.1,3.5l-0.5,0.3c-0.2,0.1-0.3,0.4-0.1,0.6c0.1,0.1,0.2,0.2,0.4,0.2c0.1,0,0.2,0,0.2-0.1 L13.7,9v4.1L12.3,14z"></path> <path class="st0" d="M18.3,6.7l-3.2,2C15,8.9,14.9,9.1,15,9.3c0.1,0.1,0.2,0.2,0.4,0.2c0.1,0,0.2,0,0.2-0.1l3.2-2 c0.2-0.1,0.3-0.4,0.1-0.6C18.8,6.7,18.5,6.6,18.3,6.7z"></path> <path class="st0" d="M10.3,11.8l-3,1.9L0.6,9.8c-0.2-0.1-0.5,0-0.6,0.2c-0.1,0.2,0,0.5,0.2,0.6l7,4c0.1,0,0.1,0.1,0.2,0.1 c0.1,0,0.2,0,0.2-0.1l3.2-2c0.2-0.1,0.3-0.4,0.1-0.6C10.8,11.7,10.5,11.7,10.3,11.8z"></path> <path class="st0" d="M18.3,8.5l-3.2,2c-0.2,0.1-0.3,0.4-0.1,0.6c0.1,0.1,0.2,0.2,0.4,0.2c0.1,0,0.2,0,0.2-0.1l3.2-2 c0.2-0.1,0.3-0.4,0.1-0.6C18.8,8.4,18.5,8.3,18.3,8.5z"></path> <path class="st0" d="M10.3,13.5l-3,1.9l-6.7-3.8c-0.2-0.1-0.5,0-0.6,0.2c-0.1,0.2,0,0.5,0.2,0.6l7,4c0.1,0,0.1,0.1,0.2,0.1 c0.1,0,0.2,0,0.2-0.1l3.2-2c0.2-0.1,0.3-0.4,0.1-0.6C10.8,13.4,10.5,13.4,10.3,13.5z"></path> <path class="st0" d="M18.3,10.2l-3.2,2c-0.2,0.1-0.3,0.4-0.1,0.6c0.1,0.1,0.2,0.2,0.4,0.2c0.1,0,0.2,0,0.2-0.1l3.2-2 c0.2-0.1,0.3-0.4,0.1-0.6C18.8,10.1,18.5,10.1,18.3,10.2z"></path> <path class="st0" d="M10.3,15.2l-3,1.9l-6.7-3.8c-0.2-0.1-0.5,0-0.6,0.2c-0.1,0.2,0,0.5,0.2,0.6l7,4C7.2,18,7.3,18,7.4,18 c0.1,0,0.2,0,0.2-0.1l3.2-2c0.2-0.1,0.3-0.4,0.1-0.6C10.8,15.2,10.5,15.1,10.3,15.2z"></path> </g> </svg> 