<?xml version="1.0" encoding="UTF-8"?> <!-- Generator: Adobe Illustrator 19.2.1, SVG Export Plug-In . SVG Version: 6.00 Build 0) --> <svg xmlns="http://www.w3.org/2000/svg" xmlns:xlink="http://www.w3.org/1999/xlink" id="Capa_1" x="0px" y="0px" width="19px" height="19px" viewBox="0 0 19 19" style="enable-background:new 0 0 19 19;" xml:space="preserve"> <style type="text/css"> .st0{fill:#204461;} </style> <g> <g> <polygon class="st0" points="13.8,4.2 13.9,4.4 13.7,4.4 13.6,4.7 13.9,4.7 14.2,4.7 14.4,4.5 14.2,4.4 14.1,4.3 13.9,4 13.9,3.7 13.6,3.7 13.5,3.9 13.5,4 13.6,4.1 "></polygon> <polygon class="st0" points="13.6,4.3 13.6,4.2 13.4,4.1 13.2,4.1 13,4.4 13,4.6 13.2,4.6 "></polygon> <path class="st0" d="M8.8,5.1L8.7,5.3H8.5v0.1h0.1c0,0,0,0,0,0.1l0.2,0l0.1-0.1l0-0.1l0.1,0l0-0.1L8.8,5.1L8.8,5.1z"></path> <polygon class="st0" points="8.1,5.4 8.1,5.5 8.3,5.5 8.3,5.4 8.2,5.3 "></polygon> <path class="st0" d="M19,9.4c0-0.3,0-0.6,0-0.8c-0.1-0.9-0.3-1.8-0.6-2.6c0-0.1,0-0.1-0.1-0.2c-0.4-1-1-2-1.8-2.8 c0-0.1-0.1-0.1-0.1-0.2c-0.1-0.1-0.3-0.3-0.4-0.4C14.2,0.9,12,0,9.5,0C7,0,4.8,1,3.1,2.5C2.7,2.9,2.3,3.3,2,3.7 C0.7,5.3,0,7.3,0,9.5C0,14.7,4.3,19,9.5,19c3.7,0,6.9-2.1,8.5-5.2c0.3-0.7,0.6-1.4,0.8-2.1c0-0.2,0.1-0.4,0.1-0.6 C18.9,10.6,19,10.1,19,9.4C19,9.5,19,9.4,19,9.4z M17.2,5.6L17.2,5.6c0.1,0.1,0.2,0.2,0.3,0.4l-0.1,0l-0.2,0V5.6z M15.8,3.9l0-0.4 C16,3.7,16.1,3.8,16.3,4l-0.2,0.3l-0.6,0l0-0.1L15.8,3.9z M4.4,2.9L4.4,2.9l0.2,0l0-0.1h0.3v0.1L4.8,3.1H4.4L4.4,2.9L4.4,2.9z M4.7,3.3c0,0,0.2,0,0.2,0s0,0.2,0,0.2l-0.4,0L4.4,3.4L4.7,3.3z M17.8,7.1h-0.7l-0.4-0.3l-0.4,0v0.3h-0.1L16,7l-0.8-0.2V6.3 l-1,0.1l-0.3,0.2h-0.4l-0.2,0l-0.5,0.3v0.5l-1,0.7L12,8.3h0.2l-0.1,0.3L12,8.6l0,0.7l0.8,0.9h0.4l0-0.1h0.7L14,10h0.4l0.2,0.2 l0.6,0.1L15.1,11l0.6,1.1l-0.3,0.6l0,0.3l0.3,0.3V14l0.3,0.4V15h0.3c-1.6,2-4,3.2-6.8,3.2c-4.8,0-8.7-3.9-8.7-8.7 c0-1.2,0.2-2.4,0.7-3.4V5.8l0.3-0.4C1.9,5.2,2,5,2.1,4.8l0,0.2L1.8,5.4C1.7,5.6,1.6,5.9,1.5,6.1v0.5l0.4,0.2v0.7L2.2,8l0.3,0 l0-0.2L2.2,7.4L2.1,6.9h0.2l0.1,0.5l0.5,0.7L2.7,8.3L3,8.8L3.8,9V8.8l0.3,0l0,0.2l0.2,0l0.4,0.1l0.5,0.6l0.7,0.1l0.1,0.5l-0.5,0.3 l0,0.5l-0.1,0.3l0.7,0.8l0.1,0.3c0,0,0.2,0.1,0.3,0.1c0,0,0.5,0.4,0.5,0.4v1.5l0.2,0.1L7,15.3l0.3,0.4l-0.1,0.7l0.4,0.7l0.5,0.5 l0.5,0l0.1-0.2l-0.4-0.3l0-0.2l0.1-0.2l0-0.2l-0.3,0L8,16.4l0.2-0.2l0-0.2l-0.2-0.1l0-0.1l0.3-0.1l0.5-0.2l0.2-0.3l0.5-0.7 l-0.1-0.5l0.2-0.3l0.5,0l0.3-0.3l0.1-1l0.4-0.5l0.1-0.3l-0.3-0.1l-0.2-0.4l-0.8,0l-0.6-0.2l0-0.4l-0.2-0.4l-0.6,0L8,9.6L7.7,9.4 l0,0.2l-0.5,0L7,9.3L6.5,9.2L6,9.7L5.4,9.6L5.3,8.8L4.8,8.8L5,8.4L4.9,8.1L4.3,8.6L3.9,8.5L3.7,8.2l0.1-0.3L4,7.4l0.5-0.3l1,0 l0,0.3L6,7.7l0-0.5l0.3-0.3l0.5-0.4l0-0.2l0.5-0.6l0.6-0.3l-0.1,0L8.2,5l0.1,0l0.1,0.1l0.1-0.2l0,0l-0.2,0L8.3,4.8V4.7l0.1-0.1 h0.2l0.1,0l0.1,0.2l0.1,0v0l0,0l0.3,0l0-0.1l0.2,0v0.1L9.1,4.9h0l0,0.2l0.5,0.1c0,0,0,0,0,0l0.1,0l0-0.2L9.4,4.8l0-0.1l0.3-0.1 l0-0.3L9.4,4.1l0-0.5L8.9,3.8H8.7l0-0.4L8.1,3.3L7.9,3.5v0.6L7.4,4.2L7.2,4.6L7,4.6V4.1L6.6,4.1L6.4,3.9L6.3,3.6l0.8-0.5L7.5,3 l0,0.3l0.2,0l0-0.1l0.2,0l0,0L7.9,3l0-0.1l0.3,0l0.2-0.2l0,0l0,0l0.1-0.1l0.6-0.1l0.3,0.2L8.5,3.1l0.8,0.2l0.1-0.3h0.4l0.1-0.2 L9.7,2.7V2.4L8.9,2.1L8.3,2.1L8,2.3l0,0.4L7.7,2.7L7.6,2.4l0.3-0.3l-0.6,0L7.2,2.2L7.1,2.4l0.2,0l0,0.2l-0.4,0L6.9,2.8l-0.5,0 c0,0,0-0.3,0-0.3s0.4,0,0.4,0L7,2.2L6.9,2.1L6.6,2.3l-0.4,0L6,2H5.5L5,2.3h0.5l0,0.1L5.4,2.6l0.5,0L6,2.8l-0.6,0l0-0.1L5,2.6 L4.8,2.4l-0.4,0c1.4-1,3.2-1.7,5.1-1.7c2.2,0,4.2,0.8,5.8,2.2l-0.1,0.2l-0.4,0.2l-0.2,0.2l0,0.2l0.2,0L15,4l0.4-0.1l0.1,0.4h-0.1 l-0.3,0l-0.3,0.1l-0.3,0.4l-0.5,0.1l-0.1,0.4l0.2,0l-0.1,0.2l-0.4-0.1l-0.4,0.1L13,5.8l0.1,0.5l0.2,0.1l0.4,0l0.3,0l0.1-0.2 l0.4-0.6l0.3,0.1l0.3-0.3l0.1,0.2L15.8,6l-0.1,0.1l-0.3,0l0.1,0.2l0.2,0l0.2-0.1l0-0.3l0.1,0l-0.1-0.1l-0.5-0.3l-0.1-0.3h0.4 l0.1,0.1l0.3,0.3l0,0.3l0.3,0.4l0.1-0.5l0.2-0.1l0,0.4l0.2,0.3l0.5,0C17.7,6.6,17.8,6.8,17.8,7.1L17.8,7.1z M5.2,4.3l0.2-0.1 l0.2,0L5.5,4.5L5.3,4.6L5.2,4.3z M6.4,5v0.2H5.9L5.7,5.1l0-0.1L6,4.9h0.3L6.4,5L6.4,5z M6.6,5.2v0.2L6.5,5.5l-0.2,0 c0,0,0-0.3,0-0.3H6.6z M6.5,5.1V4.9l0.2,0.2L6.5,5.1z M6.6,5.6v0.2L6.4,5.9H6.2l0-0.2l0.1,0l0-0.1L6.6,5.6z M5.9,5.2h0.3L5.8,5.7 L5.6,5.7l0-0.2L5.9,5.2z M7.1,5.5v0.2H6.8L6.7,5.6V5.4h0L7.1,5.5z M6.8,5.3L6.8,5.3H7L6.9,5.4L6.8,5.3z M18,7.5L18,7.5 c0,0,0.1,0.1,0.1,0.1L18,7.5z"></path> <path class="st0" d="M1.5,5.8v0.3c0.1-0.2,0.2-0.4,0.3-0.7L1.5,5.8z"></path> </g> </g> </svg> 