<?xml version="1.0" encoding="UTF-8"?> <!-- Generator: Adobe Illustrator 19.2.1, SVG Export Plug-In . SVG Version: 6.00 Build 0) --> <svg xmlns="http://www.w3.org/2000/svg" xmlns:xlink="http://www.w3.org/1999/xlink" id="Capa_1" x="0px" y="0px" width="19px" height="19px" viewBox="0 0 19 19" style="enable-background:new 0 0 19 19;" xml:space="preserve"> <style type="text/css"> .st0{fill:#0095DA;} </style> <g> <g> <path class="st0" d="M16.8,1.5h-0.9V0h-1.5v1.5H4.6V0H3.1v1.5H2.2C1,1.5,0,2.5,0,3.7v13.1C0,18,1,19,2.2,19h14.5 c1.2,0,2.2-1,2.2-2.2V3.7C19,2.5,18,1.5,16.8,1.5z M17.5,16.8c0,0.4-0.3,0.7-0.7,0.7H2.2c-0.4,0-0.7-0.3-0.7-0.7V7h16V16.8z M17.5,5.5h-16V3.7C1.5,3.3,1.8,3,2.2,3h0.9v1.5h1.5V3h9.8v1.5h1.5V3h0.9c0.4,0,0.7,0.3,0.7,0.7V5.5z"></path> </g> </g> <g> <g> <rect x="2.8" y="8.5" class="st0" width="1.5" height="1.5"></rect> </g> </g> <g> <g> <rect x="5.8" y="8.5" class="st0" width="1.5" height="1.5"></rect> </g> </g> <g> <g> <rect x="8.8" y="8.5" class="st0" width="1.5" height="1.5"></rect> </g> </g> <g> <g> <rect x="11.7" y="8.5" class="st0" width="1.5" height="1.5"></rect> </g> </g> <g> <g> <rect x="14.7" y="8.5" class="st0" width="1.5" height="1.5"></rect> </g> </g> <g> <g> <rect x="2.8" y="11.5" class="st0" width="1.5" height="1.5"></rect> </g> </g> <g> <g> <rect x="5.8" y="11.5" class="st0" width="1.5" height="1.5"></rect> </g> </g> <g> <g> <rect x="8.8" y="11.5" class="st0" width="1.5" height="1.5"></rect> </g> </g> <g> <g> <rect x="11.7" y="11.5" class="st0" width="1.5" height="1.5"></rect> </g> </g> <g> <g> <rect x="2.8" y="14.5" class="st0" width="1.5" height="1.5"></rect> </g> </g> <g> <g> <rect x="5.8" y="14.5" class="st0" width="1.5" height="1.5"></rect> </g> </g> <g> <g> <rect x="8.8" y="14.5" class="st0" width="1.5" height="1.5"></rect> </g> </g> <g> <g> <rect x="11.7" y="14.5" class="st0" width="1.5" height="1.5"></rect> </g> </g> <g> <g> <rect x="14.7" y="11.5" class="st0" width="1.5" height="1.5"></rect> </g> </g> </svg> 